inDegrees=yes
name=ik_MT_2026-09-05_11h40_01210270-000-000_orientations_dedrift
DataType=double
version=3
OpenSimVersion=4.5
endheader
time	pelvis_tilt	pelvis_list	pelvis_rotation	pelvis_tx	pelvis_ty	pelvis_tz	hip_flexion_r	hip_adduction_r	hip_rotation_r	knee_angle_r	knee_angle_r_beta	ankle_angle_r	subtalar_angle_r	mtp_angle_r	hip_flexion_l	hip_adduction_l	hip_rotation_l	knee_angle_l	knee_angle_l_beta	ankle_angle_l	subtalar_angle_l	mtp_angle_l	lumbar_extension	lumbar_bending	lumbar_rotation	arm_flex_r	arm_add_r	arm_rot_r	elbow_flex_r	pro_sup_r	wrist_flex_r	wrist_dev_r	arm_flex_l	arm_add_l	arm_rot_l	elbow_flex_l	pro_sup_l	wrist_flex_l	wrist_dev_l
126.625	-1.24300767205246	4.373465550985891	-1984.133776773127	0	0.9399999999999999	0	4.689233563779482	9.009773516749048	-2.332856132135465	6.574042743254702	0.1147386910366348	-0.5550952327967346	0	0	28.22101699740224	10.01434338769499	-13.50720431037661	67.86705415310435	1.184503548600963	-6.797121565174869	0	0	-5.219980783143394	7.561960734478189	1.045402784784413	5.177444209031013	-10.96020976235989	-5.929356622199643	0.07963850396223608	45.00000025534055	0	0	-9.088950737957264	12.94208802328069	-8.184350190769212	82.12318615873349	45.00000025534055	0	0
126.65	-1.436891219512228	3.642619228516803	-1984.439219013042	0	0.9399999999999999	0	3.509998624419668	7.90997568831996	-1.513906381440771	6.392939336718466	0.1115778403059997	0.216375042764642	0	0	29.39623188196909	8.729264194740859	-12.64043613459854	68.34511938201271	1.192847360884714	-5.866938656045813	0	0	-5.615148186858341	7.026717950133391	1.137177753176892	6.301878670722353	-11.70910244491867	-4.863958458653054	0.07123582511374521	45.00000025534055	0	0	-8.706273731901723	13.11315709175748	-8.380378644502047	82.04221649468754	45.00000025534055	0	0
126.675	-1.912193164762378	2.655763024688377	-1984.722225213827	0	0.9399999999999999	0	2.069922980468001	6.527245878725735	-0.6668533448153463	6.070189743927132	0.1059447972523199	0.8740029505399844	0	0	30.23758287440344	8.040166244523522	-11.18116345028601	67.65150763996377	1.180741552255466	-4.582207555061069	0	0	-6.346298176897514	6.165085378276799	1.15656766088454	7.489726061643538	-12.37283356292583	-3.534198808990328	0.06364259251306886	45.00000025534055	0	0	-8.277033544236604	13.29913423355066	-8.64981379789106	82.03522163990098	45.00000025534055	0	0
126.7	-2.54501899084674	1.773775131788418	-1985.057368906302	0	0.9399999999999999	0	0.4201112274660375	5.223892529759835	0.1063451423046113	5.676171950634354	0.09906788944791851	1.409538775133619	0	0	30.84259490213134	7.445776503570188	-9.347061510589603	65.89627116929201	1.150106896691159	-3.269473499788019	0	0	-7.280428831950212	5.280252723302395	1.148915332886085	8.718883592883781	-12.886713582042	-2.312201846568984	0.05913359582249424	45.00000025534055	0	0	-7.674233627811563	13.41711452912815	-9.185401423672893	81.87454471927919	45.00000025534055	0	0
126.725	-2.804408654881189	1.218623779575018	-1985.369885832049	0	0.9399999999999999	0	-0.7789375462666271	4.256270286055248	0.6101912649086384	5.302601193753487	0.09254784975118012	1.783611515558096	0	0	31.42717092873562	6.630960592442153	-7.679317957905029	62.93661892719576	1.098451220352547	-2.170368226300722	0	0	-7.783052420821359	4.716202440186143	0.9695428115359584	9.89618781962761	-13.2429389376631	-0.7325324823611801	0.05599527715431578	45.00000025534055	0	0	-7.143260554447129	13.56460479022911	-9.975320855347892	81.7591549812519	45.00000025534055	0	0
126.75	-2.934697068199817	0.9135381316328384	-1985.428911240589	0	0.9399999999999999	0	-1.762275908653673	3.525524243007473	0.6873374291545695	5.040545329391908	0.0879741120939109	2.150481359926589	0	0	31.3749423689765	5.627090529828851	-6.065786556681799	58.54715778841012	1.021840671092398	-1.457535067129355	0	0	-8.231508640916491	4.408883989995465	0.4931491784951477	11.13216740046022	-13.51348792356599	0.8492868952143754	0.05450718858209914	45.00000025534055	0	0	-6.685181678517151	13.71550981832107	-10.75025301358224	81.77824748122605	45.00000025534055	0	0
126.775	-2.895399731755601	0.8817045769181205	-1985.613348163723	0	0.9399999999999999	0	-2.473460410242823	3.086344223953283	1.08744389205192	4.952442929231384	0.08643643513220017	2.334355401971876	0	0	30.86906335581427	4.138934612798732	-4.800828175333642	52.68122189161749	0.9194607759824405	-1.480537010608257	0	0	-8.379052411795927	4.328973974390765	-0.02673151610047167	12.16708149084142	-13.71843915457175	2.189495941649502	0.05476154733029154	45.00000025534055	0	0	-6.565891276504909	13.94222249013336	-11.54030222606336	82.1989015096827	45.00000025534055	0	0
126.8	-2.650177226871287	1.078930136077124	-1985.796072502065	0	0.9399999999999999	0	-3.081616320041829	2.900904539907147	1.303420421677529	4.826005910219672	0.08422969285403913	2.590291665499474	0	0	29.86097090165592	2.243545071065545	-3.89319236821663	45.41035725528203	0.7925602486115666	-2.080338003377744	0	0	-8.161537085711116	4.332599725792628	-0.6410666288732469	12.9944372428708	-13.73743764983662	3.550778726513685	0.05623697737277045	45.00000025534055	0	0	-6.733200904061883	14.09610363341243	-12.27833380727791	82.83237636451327	45.00000025534055	0	0
126.825	-2.271951572418105	1.354456150412107	-1986.190392434054	0	0.9399999999999999	0	-3.540200351452857	2.785664586626728	1.670708484457114	4.742433599069616	0.08277108086096949	2.595630832183387	0	0	28.34988274863123	-0.1567038847057073	-3.757834856855479	37.21008222822223	0.649438449820306	-3.565372371620219	0	0	-7.757771726098737	4.199209717477699	-1.105299583433732	13.67824942842597	-13.54614056594011	4.981529098705986	0.05879604695110104	45.00000025534055	0	0	-7.02333722772222	14.08570559716833	-13.04811977116301	83.65550083724563	45.00000025534055	0	0
126.85	-1.959858092305449	1.564958255425282	-1986.873333948903	0	0.9399999999999999	0	-3.923404286033659	2.495744442086584	2.051403519271151	4.913567541080409	0.08575793161097488	2.406577848373322	0	0	25.98909149481888	-2.211008904438091	-3.791756538062139	28.00281533406798	0.488741327407442	-6.182307223894031	0	0	-7.428956347883708	3.839168152240545	-1.243618304789416	14.26649203176985	-13.25694034978193	6.451706900432727	0.06233433605320585	45.00000025534055	0	0	-7.266362282392663	13.85728663512049	-13.82304370461734	84.41318612883497	45.00000025534055	0	0
126.875	-2.102208473290068	1.664414435093864	-1987.794605963374	0	0.9399999999999999	0	-4.743800567587638	1.906214462043934	2.411373684740156	5.168210903889473	0.09020229671034351	2.008248962362562	0	0	23.82029400629244	-3.969287809231472	-2.396421706572082	19.71144355305706	0.3440295903218553	-8.807103131659648	0	0	-7.578205794510974	3.172288506046792	-0.8866889036728191	14.72254305772619	-12.88998861489384	7.721989403959702	0.06417373406556347	45.00000025534055	0	0	-7.452016700707654	13.54149837984273	-14.69114077249492	85.01393433682532	45.00000025534055	0	0
126.9	-2.464956667393005	1.775284957279228	-1989.05675937905	0	0.9399999999999999	0	-5.731171031137271	1.094686952489532	3.17708582033922	5.647214219882779	0.09856248170239751	1.302789657265263	0	0	22.58578832014956	-5.296058293855354	-0.1767907965090894	13.33884936284101	0.2328068398091234	-10.88812241657892	0	0	-7.608594375186812	2.368150111428878	-0.1995552840721482	14.76012777430755	-12.39821949922599	8.99905396177965	0.06574018028360742	45.00000025534055	0	0	-7.9789691527795	13.24560902913506	-15.4677197955248	85.86148900130794	45.00000025534055	0	0
126.925	-3.31534339634646	1.862149010754321	-1990.289912825003	0	0.9399999999999999	0	-7.262121195082092	-0.1111213173690074	4.24712075114546	6.128619476812778	0.1069645884722353	0.04853775881977998	0	0	21.96149623937737	-6.256987904057466	2.302824363715555	9.292949527480536	0.1621925664761866	-11.51836464586289	0	0	-7.470795542594629	1.398002427669491	0.3546222050473675	13.91236077617427	-11.86245935525039	9.942268832809933	0.06818673693671426	45.00000025534055	0	0	-9.069026016989627	12.98106663548193	-16.10633345174394	86.69051220057162	45.00000025534055	0	0
126.95	-4.335632168012444	1.976283937401663	-1991.452035847187	0	0.9399999999999999	0	-8.859386202956616	-1.569611551887208	5.314130749954155	6.798237318419045	0.1186516245383625	-2.146319513385678	0	0	21.43196018706359	-7.02069867540398	4.1655128783459	7.175120605506527	0.1252294787937781	-9.940722494840063	0	0	-7.541605983030469	0.3540298822347762	1.116336092037818	12.85212477930734	-11.12608435150424	10.67941209175211	0.073828600406855	45.00000025534055	0	0	-10.08173189196265	12.57950185025555	-16.37221530273528	87.41043738443736	45.00000025534055	0	0
126.975	-4.944296703093026	1.852752561181548	-1992.54901059551	0	0.9399999999999999	0	-9.820248099061901	-3.592803188111478	6.286620781058213	7.652810904007719	0.1335667473074584	-5.748523778120227	0	0	20.1438654245058	-7.266755974459153	5.749695951055338	5.79041173709357	0.1010617498584071	-8.03971047518918	0	0	-7.23112756687028	-1.006516113214822	1.962638692356313	11.47199878400036	-10.2845825035886	10.59692311572222	0.08125971755766126	45.00000025534055	0	0	-10.75707587738911	12.13945763080114	-17.02540813240887	87.70940797415885	45.00000025534055	0	0
127	-5.017813450040988	1.329269109118591	-1993.248389706647	0	0.9399999999999999	0	-10.0162726546698	-6.470905889277383	6.585366356099489	8.625116595267123	0.1505366829558145	-10.90208958441309	0	0	18.48777133469068	-6.24023611481248	6.546185001569399	5.32648252528221	0.09296465761611666	-8.696882147308845	0	0	-6.92842800739736	-2.556357314186235	1.971537263920066	10.54098864861265	-9.392310022076753	10.52630027529494	0.09028206909495795	45.00000025534055	0	0	-10.70313816540461	11.76166655997427	-17.74757831581444	87.82873275557398	45.00000025534055	0	0
127.025	-5.294780806553362	0.8532680347163357	-1993.775119371806	0	0.9399999999999999	0	-9.760351670307355	-9.933259611353693	6.658830643035234	10.23559510407789	0.1786448354671708	-16.54915154846677	0	0	17.31930952799527	-4.918077945798454	6.200750203061548	5.833889159375004	0.101820574027498	-12.08558121122229	0	0	-7.286984643025799	-3.899008863403714	1.533439166108193	9.968397948939241	-8.545755331784425	10.50422011585982	0.1002594863468866	45.00000025534055	0	0	-10.00705102519184	11.58914083078245	-18.84884581723821	87.77601110717185	45.00000025534055	0	0
127.05	-5.33590040454796	0.4072642362516314	-1994.046334144287	0	0.9399999999999999	0	-8.509183054884392	-13.29015850449509	6.713011401626438	12.63593746561626	0.2205387128511115	-21.60777962224162	0	0	16.57547256530151	-3.660090090405118	5.853889776656417	6.072760161087941	0.1059896594949258	-13.91117174939502	0	0	-7.690166394853666	-4.901156592250103	0.5567825062732408	9.556532131761156	-7.744565033133556	10.58563108874249	0.1132001659965731	45.00000025534055	0	0	-9.111071977871775	11.61907512678358	-19.87675546024966	87.80934799338839	45.00000025534055	0	0
127.075	-4.394107129460098	-0.3080027664967991	-1993.787738279867	0	0.9399999999999999	0	-5.61280191670402	-16.3567149813548	5.931687794386488	15.72954822197617	0.2745324063247041	-25.4197188572208	0	0	16.53466926014538	-1.716732002260652	6.723316285202382	6.123133158892561	0.1068688341607163	-14.25621834384374	0	0	-7.456451853473114	-5.711695539141364	-1.027425266508703	9.331752350844068	-6.852309087094365	10.79173738022254	0.1273910878985855	45.00000025534055	0	0	-7.944270580522701	11.79050714305248	-20.96885133012916	88.30371260344728	45.00000025534055	0	0
127.1	-3.474403380505136	-1.238158633042892	-1993.379361874442	0	0.9399999999999999	0	-2.300107493897317	-19.48334537121597	4.435401027990531	19.23282110226146	0.3356760526815075	-27.55145678515866	0	0	15.89891723681055	-0.02091901577706707	8.930701154739966	6.048345136143467	0.1055635369226882	-14.04439777464363	0	0	-6.79395749170907	-6.908134731633858	-2.742936024228822	8.465262877168517	-5.638960818997926	10.80928449258993	0.1435484861733974	45.00000025534055	0	0	-7.378140887152072	11.58881815973101	-21.51459047789632	88.76235964799457	45.00000025534055	0	0
127.125	-2.532549486123137	-2.013142874192051	-1993.311266499744	0	0.9399999999999999	0	1.07876864212593	-22.34495938496181	3.456041986252535	22.95100718264429	0.4005706419860103	-27.99692881329151	0	0	14.94471514753437	0.9540079094504536	9.71033785619545	5.236190523962338	0.09138876490486984	-13.52630019138429	0	0	-5.729002006953201	-8.095889151215145	-4.033005121446903	6.987073981721475	-4.240275089136039	10.80414294090455	0.1544495186039886	45.00000025534055	0	0	-7.185983619745524	11.18578078998699	-22.42587936260733	89.09221710832038	45.00000025534055	0	0
